<?xml version="1.0" encoding="UTF-8" standalone="no"?>
<!-- Created with Inkscape (http://www.inkscape.org/) -->

<svg
   xmlns:osb="http://www.openswatchbook.org/uri/2009/osb"
   xmlns:dc="http://purl.org/dc/elements/1.1/"
   xmlns:cc="http://creativecommons.org/ns#"
   xmlns:rdf="http://www.w3.org/1999/02/22-rdf-syntax-ns#"
   xmlns:svg="http://www.w3.org/2000/svg"
   xmlns="http://www.w3.org/2000/svg"
   xmlns:xlink="http://www.w3.org/1999/xlink"
   xmlns:sodipodi="http://sodipodi.sourceforge.net/DTD/sodipodi-0.dtd"
   xmlns:inkscape="http://www.inkscape.org/namespaces/inkscape"
   width="200"
   height="200"
   id="svg2"
   version="1.1"
   inkscape:version="0.48.5 r10040"
   sodipodi:docname="conveyor2.png">
  <defs
     id="defs4">
    <linearGradient
       id="linearGradient3764"
       osb:paint="solid">
      <stop
         style="stop-color:#ffffff;stop-opacity:1;"
         offset="0"
         id="stop3766" />
    </linearGradient>
    <linearGradient
       inkscape:collect="always"
       xlink:href="#linearGradient3764"
       id="linearGradient3768"
       x1="25"
       y1="115"
       x2="65"
       y2="115"
       gradientUnits="userSpaceOnUse" />
  </defs>
  <sodipodi:namedview
     id="base"
     pagecolor="#ffffff"
     bordercolor="#666666"
     borderopacity="1.0"
     inkscape:pageopacity="0.0"
     inkscape:pageshadow="2"
     inkscape:zoom="3.255"
     inkscape:cx="52.073733"
     inkscape:cy="100.50487"
     inkscape:document-units="px"
     inkscape:current-layer="layer1"
     showgrid="true"
     inkscape:window-width="1600"
     inkscape:window-height="838"
     inkscape:window-x="-8"
     inkscape:window-y="-8"
     inkscape:window-maximized="1">
    <inkscape:grid
       type="xygrid"
       id="grid2989"
       empspacing="5"
       visible="true"
       enabled="true"
       snapvisiblegridlinesonly="true" />
  </sodipodi:namedview>
  <metadata
     id="metadata7">
    <rdf:RDF>
      <cc:Work
         rdf:about="">
        <dc:format>image/svg+xml</dc:format>
        <dc:type
           rdf:resource="http://purl.org/dc/dcmitype/StillImage" />
        <dc:title></dc:title>
      </cc:Work>
    </rdf:RDF>
  </metadata>
  <g
     inkscape:label="Layer 1"
     inkscape:groupmode="layer"
     id="layer1"
     transform="translate(0,-852.36217)">
    <path
       sodipodi:type="arc"
       style="fill:#000000;fill-opacity:1"
       id="path2991"
       sodipodi:cx="140"
       sodipodi:cy="95"
       sodipodi:rx="35"
       sodipodi:ry="35"
       d="m 175,95 c 0,19.32997 -15.67003,35 -35,35 -19.32997,0 -35,-15.67003 -35,-35 0,-19.329966 15.67003,-35 35,-35 19.32997,0 35,15.670034 35,35 z"
       transform="matrix(1.0714285,0,0,1.0714286,-7.4999887,853.07645)" />
    <path
       sodipodi:type="arc"
       style="fill:#0000ff"
       id="path2992"
       sodipodi:cx="137.5"
       sodipodi:cy="92.5"
       sodipodi:rx="12.5"
       sodipodi:ry="12.5"
       d="m 150,92.5 c 0,6.903559 -5.59644,12.5 -12.5,12.5 -6.90356,0 -12.5,-5.596441 -12.5,-12.5 0,-6.903559 5.59644,-12.5 12.5,-12.5 6.90356,0 12.5,5.596441 12.5,12.5 z"
       transform="translate(4,860.36217)" />
    <path
       sodipodi:type="arc"
       style="fill:url(#linearGradient3768);fill-opacity:1"
       id="path2994"
       sodipodi:cx="45"
       sodipodi:cy="115"
       sodipodi:rx="20"
       sodipodi:ry="20"
       d="m 65,115 c 0,11.04569 -8.954305,20 -20,20 -11.045695,0 -20,-8.95431 -20,-20 0,-11.04569 8.954305,-20 20,-20 11.045695,0 20,8.95431 20,20 z"
       transform="matrix(1.375,0,0,1.35,80.625,800.11217)" />
    <rect
       style="fill:#000000;fill-opacity:1"
       id="rect3770"
       width="125"
       height="5"
       x="20"
       y="917.36218" />
    <rect
       style="fill:#000000;fill-opacity:1"
       id="rect3770-1"
       width="125"
       height="5"
       x="20"
       y="987.36218" />
    <rect
       style="fill:#000000;fill-opacity:1"
       id="rect3792"
       width="5"
       height="5"
       x="34"
       y="913.36218" />
    <rect
       style="fill:#000000;fill-opacity:1"
       id="rect3794"
       width="5"
       height="5"
       x="69"
       y="913.36218" />
    <rect
       style="fill:#000000;fill-opacity:1"
       id="rect3796"
       width="5"
       height="5"
       x="104"
       y="913.36218" />
    <rect
       style="fill:#000000;fill-opacity:1"
       id="rect3798"
       width="5"
       height="5"
       x="139"
       y="913.36218" />
    <rect
       style="fill:#000000;fill-opacity:1"
       id="rect3798-7"
       width="4.9999757"
       height="5.0000243"
       x="438.94202"
       y="-839.33527"
       transform="matrix(-0.78453359,0.62008632,-0.62008199,-0.78453701,0,0)" />
    <rect
       style="fill:#000000;fill-opacity:1"
       id="rect3798-7-0"
       width="4.9999757"
       height="5.0000243"
       x="-337.38135"
       y="-924.6778"
       transform="matrix(-0.98663339,-0.16295568,0.16296111,-0.98663249,0,0)" />
    <rect
       style="fill:#000000;fill-opacity:1"
       id="rect3792-9"
       width="5"
       height="5"
       x="50"
       y="991.36218" />
    <rect
       style="fill:#000000;fill-opacity:1"
       id="rect3794-4"
       width="5"
       height="5"
       x="85"
       y="991.36218" />
    <rect
       style="fill:#000000;fill-opacity:1"
       id="rect3796-8"
       width="5"
       height="5"
       x="120"
       y="991.36218" />
    <rect
       style="fill:#000000;fill-opacity:1"
       id="rect3798-7-0-8"
       width="4.9999757"
       height="5.0000243"
       x="-976.4953"
       y="-242.49062"
       transform="matrix(-0.39093256,-0.92041932,0.92042148,-0.39092749,0,0)" />
    <rect
       style="fill:#ffffff;fill-opacity:1;stroke:#000000;stroke-opacity:0.99470901000000000"
       id="rect3794-2"
       width="50"
       height="34.999989"
       x="50"
       y="882.36218" />
    <path
       style="fill:#030000;stroke:#000000;stroke-width:1px;stroke-linecap:butt;stroke-linejoin:miter;stroke-opacity:0.99470901;fill-opacity:1"
       d="m 50,30 50,35"
       id="path3905"
       inkscape:connector-curvature="0"
       transform="translate(0,852.36217)" />
    <path
       style="fill:#ffffff;stroke:#000000;stroke-width:1px;stroke-linecap:butt;stroke-linejoin:miter;stroke-opacity:0.99470901"
       d="m 100,882.36217 -50,35"
       id="path3909"
       inkscape:connector-curvature="0" />
  </g>
</svg>
