<?xml version="1.0" encoding="UTF-8" standalone="no"?>
<!-- Created with Inkscape (http://www.inkscape.org/) -->

<svg
   xmlns:osb="http://www.openswatchbook.org/uri/2009/osb"
   xmlns:dc="http://purl.org/dc/elements/1.1/"
   xmlns:cc="http://creativecommons.org/ns#"
   xmlns:rdf="http://www.w3.org/1999/02/22-rdf-syntax-ns#"
   xmlns:svg="http://www.w3.org/2000/svg"
   xmlns="http://www.w3.org/2000/svg"
   xmlns:sodipodi="http://sodipodi.sourceforge.net/DTD/sodipodi-0.dtd"
   xmlns:inkscape="http://www.inkscape.org/namespaces/inkscape"
   width="200"
   height="200"
   id="svg2"
   version="1.1"
   inkscape:version="0.48.5 r10040"
   sodipodi:docname="syrm_simple1.png">
  <defs
     id="defs4">
    <linearGradient
       id="linearGradient3800"
       osb:paint="solid">
      <stop
         style="stop-color:#ffffff;stop-opacity:1;"
         offset="0"
         id="stop3802" />
    </linearGradient>
    <inkscape:path-effect
       effect="spiro"
       id="path-effect3079"
       is_visible="true" />
    <linearGradient
       id="linearGradient3764"
       osb:paint="solid">
      <stop
         style="stop-color:#ffffff;stop-opacity:1;"
         offset="0"
         id="stop3766" />
    </linearGradient>
  </defs>
  <sodipodi:namedview
     id="base"
     pagecolor="#ffffff"
     bordercolor="#666666"
     borderopacity="1.0"
     inkscape:pageopacity="0.0"
     inkscape:pageshadow="2"
     inkscape:zoom="3.255"
     inkscape:cx="39.416283"
     inkscape:cy="100.50487"
     inkscape:document-units="px"
     inkscape:current-layer="layer1"
     showgrid="true"
     inkscape:window-width="1600"
     inkscape:window-height="838"
     inkscape:window-x="-8"
     inkscape:window-y="-8"
     inkscape:window-maximized="1">
    <inkscape:grid
       type="xygrid"
       id="grid2989"
       empspacing="5"
       visible="true"
       enabled="true"
       snapvisiblegridlinesonly="true" />
  </sodipodi:namedview>
  <metadata
     id="metadata7">
    <rdf:RDF>
      <cc:Work
         rdf:about="">
        <dc:format>image/svg+xml</dc:format>
        <dc:type
           rdf:resource="http://purl.org/dc/dcmitype/StillImage" />
        <dc:title></dc:title>
      </cc:Work>
    </rdf:RDF>
  </metadata>
  <g
     inkscape:label="Layer 1"
     inkscape:groupmode="layer"
     id="layer1"
     transform="translate(0,-852.36217)">
    <rect
       style="fill:#000000;fill-opacity:1;stroke:#000000;stroke-width:0.43283632;stroke-linecap:square;stroke-miterlimit:4;stroke-opacity:1;stroke-dasharray:none"
       id="rect3913-5"
       width="25"
       height="2.9999874"
       x="-1.110223e-015"
       y="936.36218" />
    <rect
       style="fill:#000000;fill-opacity:1;stroke:#000000;stroke-width:0.43301177;stroke-opacity:1"
       id="rect3913-5-1"
       width="25"
       height="2.9999874"
       x="-1.110223e-015"
       y="964.36218" />
    <path
       style="fill:none;stroke:#000000;stroke-width:4;stroke-linecap:square;stroke-linejoin:round;stroke-miterlimit:4;stroke-opacity:1;stroke-dasharray:none"
       d="m 175,935.1711 c 2.05176,-0.4436 4.19825,-0.4436 6.25001,0 3.38867,0.73264 6.5493,2.75762 8.33332,5.73035 0.8225,1.37054 1.33991,2.89744 1.91255,4.38975 0.57263,1.4923 1.22091,2.9862 2.25411,4.20579 1.5299,1.80588 3.88328,2.88474 6.25001,2.86518"
       id="path3077"
       inkscape:path-effect="#path-effect3079"
       inkscape:original-d="m 175,935.1711 c 0,0 4.2224,-0.65829 6.25001,0 3.02256,0.98131 5.81389,3.23297 8.33332,5.73035 2.39015,2.36924 1.77651,6.22631 4.16666,8.59554 1.25974,1.24869 6.25001,2.86518 6.25001,2.86518"
       inkscape:connector-curvature="0"
       sodipodi:nodetypes="csssc" />
    <path
       sodipodi:type="arc"
       style="fill:none;fill-opacity:1;fill-rule:evenodd;stroke:none"
       id="path3025"
       sodipodi:cx="42.5"
       sodipodi:cy="45"
       sodipodi:rx="17.5"
       sodipodi:ry="20"
       d="m 60,45 a 17.5,20 0 1 1 -35,0 17.5,20 0 1 1 35,0 z"
       transform="matrix(4.1428571,0,0,3.625,-78.571429,786.73717)" />
    <path
       style="fill:none;stroke:#000000;stroke-width:4;stroke-miterlimit:4;stroke-opacity:1;stroke-dasharray:none"
       d="m 93.747236,1027.3622 c -9.502516,-0.9227 -17.847375,-3.2803 -26.432107,-7.4677 -15.038811,-7.3354 -26.98415,-19.2172 -34.300822,-34.11836 -4.685539,-9.54259 -6.944145,-17.94774 -7.646228,-28.45457 -2.015109,-30.15663 14.60226,-58.69908 41.996261,-72.13391 31.343988,-15.37204 69.15351,-7.00159 91.34469,20.22231 8.8256,10.82715 14.76187,25.09655 16.29097,39.15971 0.79825,7.34141 0.22858,17.2544 -1.40643,24.47393 -6.12097,27.02759 -26.75929,48.57729 -53.54153,55.90609 -7.88651,2.158 -18.70614,3.1504 -26.304804,2.4125 z"
       id="path3030"
       inkscape:connector-curvature="0" />
    <path
       style="fill:none;stroke:#000000;stroke-width:2;stroke-miterlimit:4;stroke-opacity:1;stroke-dasharray:none"
       d="m 95.695251,1002.3622 c -6.350943,-0.6183 -11.928176,-2.1978 -17.665725,-5.00334 -10.051091,-4.91462 -18.03468,-12.87536 -22.92473,-22.85896 -3.13155,-6.39344 -4.641074,-12.02479 -5.110307,-19.06424 -1.346784,-20.2046 9.759325,-39.32772 28.067927,-48.32891 20.948553,-10.29909 46.218294,-4.69098 61.049614,13.54872 5.89854,7.25408 9.866,16.8144 10.88797,26.23656 0.5335,4.91865 0.15277,11.56025 -0.93998,16.39726 -4.09091,18.10818 -17.8844,32.54629 -35.78412,37.45641 -5.27089,1.4459 -12.50212,2.1108 -17.580649,1.6165 z"
       id="path3030-5"
       inkscape:connector-curvature="0" />
    <path
       style="fill:none;stroke:#000000;stroke-width:3;stroke-miterlimit:4;stroke-opacity:1;stroke-dasharray:none"
       d="m 98.685689,967.35542 c -1.907958,-0.19466 -3.58348,-0.69204 -5.307159,-1.5754 -3.019565,-1.54748 -5.418006,-4.05408 -6.887082,-7.19764 -0.940784,-2.01311 -1.394278,-3.78627 -1.535246,-6.00279 -0.404602,-6.36186 2.931911,-12.38319 8.432206,-15.21742 6.293396,-3.2429 13.884962,-1.47706 18.340612,4.26611 1.77205,2.2841 2.96396,5.29438 3.27098,8.26116 0.16028,1.54875 0.0459,3.64 -0.28239,5.16303 -1.229,5.70176 -5.37285,10.24791 -10.75032,11.79398 -1.58349,0.45528 -3.7559,0.66463 -5.281601,0.50897 z"
       id="path3030-5-2"
       inkscape:connector-curvature="0" />
    <path
       style="fill:none;stroke:#000000;stroke-width:0.61443931;stroke-linecap:square;stroke-linejoin:round;stroke-miterlimit:4;stroke-opacity:1;stroke-dasharray:none"
       d=""
       id="path5561"
       inkscape:connector-curvature="0"
       transform="translate(0,852.36217)" />
    <path
       style="fill:none;stroke:#000000;stroke-width:0.62938172;stroke-miterlimit:4;stroke-opacity:1;stroke-dasharray:none"
       d="m 98.212471,967.36217 c -1.963303,-0.19807 -3.687424,-0.70406 -5.461105,-1.6028 -3.10715,-1.57438 -5.575162,-4.12457 -7.086851,-7.32278 -0.968074,-2.04811 -1.434722,-3.85209 -1.579778,-6.10715 -0.416339,-6.47246 3.016955,-12.59847 8.676796,-15.48197 6.475945,-3.29927 14.287727,-1.50273 18.872617,4.34028 1.82344,2.32381 3.04992,5.38642 3.36585,8.40478 0.16493,1.57567 0.0473,3.70327 -0.29058,5.25279 -1.26464,5.80088 -5.52871,10.42607 -11.06214,11.99901 -1.62942,0.46319 -3.864855,0.67618 -5.434809,0.51784 z"
       id="path3030-5-24"
       inkscape:connector-curvature="0" />
    <path
       style="fill:none;stroke:#000000;stroke-width:2;stroke-linecap:round;stroke-linejoin:miter;stroke-opacity:1;stroke-miterlimit:4;stroke-dasharray:none"
       d="m 95,65 10,0"
       id="path5772"
       inkscape:connector-curvature="0"
       transform="translate(0,852.36217)" />
    <path
       style="fill:none;stroke:#000000;stroke-width:2;stroke-linecap:round;stroke-linejoin:miter;stroke-opacity:1;stroke-miterlimit:4;stroke-dasharray:none"
       d="m 65,95 c 0,10 0,10 0,10"
       id="path5774"
       inkscape:connector-curvature="0"
       transform="translate(0,852.36217)" />
    <path
       style="fill:none;stroke:#000000;stroke-width:2;stroke-linecap:round;stroke-linejoin:miter;stroke-opacity:1;stroke-miterlimit:4;stroke-dasharray:none"
       d="m 75,90 c 0,20 0,20 0,20"
       id="path5776"
       inkscape:connector-curvature="0"
       transform="translate(0,852.36217)" />
    <path
       style="fill:none;stroke:#000000;stroke-width:2;stroke-linecap:round;stroke-linejoin:miter;stroke-opacity:1;stroke-miterlimit:4;stroke-dasharray:none"
       d="m 95,135 c 10,0 10,0 10,0"
       id="path5778"
       inkscape:connector-curvature="0"
       transform="translate(0,852.36217)" />
    <path
       style="fill:none;stroke:#000000;stroke-width:2;stroke-linecap:round;stroke-linejoin:miter;stroke-opacity:1;stroke-miterlimit:4;stroke-dasharray:none"
       d="m 90,125 20,0"
       id="path5780"
       inkscape:connector-curvature="0"
       transform="translate(0,852.36217)" />
    <path
       style="fill:none;stroke:#000000;stroke-width:2.14908743;stroke-linecap:butt;stroke-linejoin:miter;stroke-opacity:1;stroke-miterlimit:4;stroke-dasharray:none"
       d="m 125,90 c 0,20 0,20 0,20"
       id="path5782"
       inkscape:connector-curvature="0"
       transform="translate(0,852.36217)" />
    <path
       style="fill:none;stroke:#000000;stroke-width:2.14908743;stroke-linecap:butt;stroke-linejoin:miter;stroke-opacity:1;stroke-miterlimit:4;stroke-dasharray:none"
       d="m 135,95 c 0,10 0,10 0,10"
       id="path5784"
       inkscape:connector-curvature="0"
       transform="translate(0,852.36217)" />
    <path
       style="fill:none;stroke:#000000;stroke-width:2;stroke-linecap:round;stroke-linejoin:miter;stroke-opacity:1;stroke-miterlimit:4;stroke-dasharray:none"
       d="m 100,55 c 5,-5 5,-5 5,-5"
       id="path5786"
       inkscape:connector-curvature="0"
       transform="translate(0,852.36217)" />
    <path
       style="fill:none;stroke:#000000;stroke-width:2;stroke-linecap:round;stroke-linejoin:miter;stroke-opacity:1;stroke-miterlimit:4;stroke-dasharray:none"
       d="m 95,50 c 5,5 5,5 5,5"
       id="path5788"
       inkscape:connector-curvature="0"
       transform="translate(0,852.36217)" />
    <path
       style="fill:none;stroke:#000000;stroke-width:2;stroke-linecap:round;stroke-linejoin:miter;stroke-opacity:1;stroke-miterlimit:4;stroke-dasharray:none"
       d="M 120,55 C 105,65 105,65 105,65"
       id="path5790"
       inkscape:connector-curvature="0"
       transform="translate(0,852.36217)" />
    <path
       style="fill:none;stroke:#000000;stroke-width:2;stroke-linecap:round;stroke-linejoin:miter;stroke-opacity:1;stroke-miterlimit:4;stroke-dasharray:none"
       d="M 110,75 C 130,60 130,60 130,60"
       id="path5792"
       inkscape:connector-curvature="0"
       transform="translate(0,852.36217)" />
    <path
       style="fill:none;stroke:#000000;stroke-width:2;stroke-linecap:round;stroke-linejoin:miter;stroke-opacity:1;stroke-miterlimit:4;stroke-dasharray:none"
       d="M 95,65 C 80,55 80,55 80,55"
       id="path5794"
       inkscape:connector-curvature="0"
       transform="translate(0,852.36217)" />
    <path
       style="fill:none;stroke:#000000;stroke-width:2;stroke-linecap:round;stroke-linejoin:miter;stroke-opacity:1;stroke-miterlimit:4;stroke-dasharray:none"
       d="M 90,75 C 70,60 70,60 70,60"
       id="path5796"
       inkscape:connector-curvature="0"
       transform="translate(0,852.36217)" />
    <path
       style="fill:none;stroke:#000000;stroke-width:2;stroke-linecap:butt;stroke-linejoin:miter;stroke-opacity:1;stroke-miterlimit:4;stroke-dasharray:none"
       d="m 90,75 c 20,0 20,0 20,0"
       id="path5798"
       inkscape:connector-curvature="0"
       transform="translate(0,852.36217)" />
    <path
       style="fill:none;stroke:#000000;stroke-width:2;stroke-linecap:round;stroke-linejoin:miter;stroke-opacity:1;stroke-miterlimit:4;stroke-dasharray:none"
       d="m 50,95 c 0,0 0,0 5,5 -5,5 -5,5 -5,5"
       id="path5800"
       inkscape:connector-curvature="0"
       transform="translate(0,852.36217)" />
    <path
       style="fill:none;stroke:#000000;stroke-width:2;stroke-linecap:round;stroke-linejoin:miter;stroke-opacity:1;stroke-miterlimit:4;stroke-dasharray:none"
       d="M 65,95 C 55,80 55,80 55,80"
       id="path5802"
       inkscape:connector-curvature="0"
       transform="translate(0,852.36217)" />
    <path
       style="fill:none;stroke:#000000;stroke-width:2;stroke-linecap:round;stroke-linejoin:miter;stroke-opacity:1;stroke-miterlimit:4;stroke-dasharray:none"
       d="M 75,90 C 60,70 60,70 60,70"
       id="path5804"
       inkscape:connector-curvature="0"
       transform="translate(0,852.36217)" />
    <path
       style="fill:none;stroke:#000000;stroke-width:2;stroke-linecap:round;stroke-linejoin:miter;stroke-opacity:1;stroke-miterlimit:4;stroke-dasharray:none"
       d="M 65,105 C 55,120 55,120 55,120"
       id="path5806"
       inkscape:connector-curvature="0"
       transform="translate(0,852.36217)" />
    <path
       style="fill:none;stroke:#000000;stroke-width:2;stroke-linecap:round;stroke-linejoin:miter;stroke-opacity:1;stroke-miterlimit:4;stroke-dasharray:none"
       d="M 75,110 C 60,130 60,130 60,130"
       id="path5808"
       inkscape:connector-curvature="0"
       transform="translate(0,852.36217)" />
    <path
       style="fill:none;stroke:#000000;stroke-width:2;stroke-linecap:round;stroke-linejoin:miter;stroke-opacity:1;stroke-miterlimit:4;stroke-dasharray:none"
       d="m 95,150 c 0,0 0,0 5,-5 5,5 5,5 5,5"
       id="path5810"
       inkscape:connector-curvature="0"
       transform="translate(0,852.36217)" />
    <path
       style="fill:none;stroke:#000000;stroke-width:2;stroke-linecap:round;stroke-linejoin:miter;stroke-opacity:1;stroke-miterlimit:4;stroke-dasharray:none"
       d="M 95,135 C 80,145 80,145 80,145"
       id="path5812"
       inkscape:connector-curvature="0"
       transform="translate(0,852.36217)" />
    <path
       style="fill:none;stroke:#000000;stroke-width:2;stroke-linecap:round;stroke-linejoin:miter;stroke-opacity:1;stroke-miterlimit:4;stroke-dasharray:none"
       d="M 90,125 C 70,140 70,140 70,140"
       id="path5814"
       inkscape:connector-curvature="0"
       transform="translate(0,852.36217)" />
    <path
       style="fill:none;stroke:#000000;stroke-width:2;stroke-linecap:round;stroke-linejoin:miter;stroke-opacity:1;stroke-miterlimit:4;stroke-dasharray:none"
       d="m 105,135 c 15,10 15,10 15,10"
       id="path5816"
       inkscape:connector-curvature="0"
       transform="translate(0,852.36217)" />
    <path
       style="fill:none;stroke:#000000;stroke-width:2;stroke-linecap:round;stroke-linejoin:miter;stroke-opacity:1;stroke-miterlimit:4;stroke-dasharray:none"
       d="m 110,125 c 20,15 20,15 20,15"
       id="path5818"
       inkscape:connector-curvature="0"
       transform="translate(0,852.36217)" />
    <path
       style="fill:none;stroke:#000000;stroke-width:2.14908743;stroke-linecap:butt;stroke-linejoin:miter;stroke-opacity:1;stroke-miterlimit:4;stroke-dasharray:none"
       d="m 150,95 c 0,0 0,0 -5,5 5,5 5,5 5,5"
       id="path5820"
       inkscape:connector-curvature="0"
       transform="translate(0,852.36217)" />
    <path
       style="fill:none;stroke:#000000;stroke-width:2.14908743;stroke-linecap:butt;stroke-linejoin:miter;stroke-opacity:1;stroke-miterlimit:4;stroke-dasharray:none"
       d="M 135,95 C 145,80 145,80 145,80"
       id="path5822"
       inkscape:connector-curvature="0"
       transform="translate(0,852.36217)" />
    <path
       style="fill:none;stroke:#000000;stroke-width:1.86116445;stroke-linecap:butt;stroke-linejoin:miter;stroke-opacity:1;stroke-miterlimit:4;stroke-dasharray:none"
       d="m 135,957.36217 c 10,15 10,15 10,15"
       id="path5824"
       inkscape:connector-curvature="0" />
    <path
       style="fill:none;stroke:#000000;stroke-width:2.14908743;stroke-linecap:butt;stroke-linejoin:miter;stroke-opacity:1;stroke-miterlimit:4;stroke-dasharray:none"
       d="M 125,90 C 140,70 140,70 140,70"
       id="path5826"
       inkscape:connector-curvature="0"
       transform="translate(0,852.36217)" />
    <path
       style="fill:none;stroke:#000000;stroke-width:1.92220211;stroke-linecap:butt;stroke-linejoin:miter;stroke-opacity:1;stroke-miterlimit:4;stroke-dasharray:none"
       d="m 125,962.36217 c 15,20 15,20 15,20"
       id="path5828"
       inkscape:connector-curvature="0" />
  </g>
</svg>
