<?xml version="1.0" encoding="UTF-8" standalone="no"?>
<!DOCTYPE svg PUBLIC "-//W3C//DTD SVG 1.1//EN" "http://www.w3.org/Graphics/SVG/1.1/DTD/svg11.dtd">
<!-- Generated by Microsoft Visio, SVG Export el-fconverter-3L-dfim.svg FC icon-3L -->
<svg xmlns="http://www.w3.org/2000/svg" xmlns:xlink="http://www.w3.org/1999/xlink" xmlns:ev="http://www.w3.org/2001/xml-events"
		xmlns:v="http://schemas.microsoft.com/visio/2003/SVGExtensions/" width="4.16614in" height="2.08307in"
		viewBox="0 0 299.962 149.981" xml:space="preserve" color-interpolation-filters="sRGB" class="st7">
	<v:documentProperties v:langID="1044" v:metric="true" v:viewMarkup="false">
		<v:userDefs>
			<v:ud v:nameU="msvNoAutoConnect" v:val="VT0(1):26"/>
		</v:userDefs>
	</v:documentProperties>

	<style type="text/css">
	<![CDATA[
		.st1 {stroke:#000000;stroke-linecap:round;stroke-linejoin:round;stroke-width:2.75}
		.st2 {fill:#ffffff}
		.st3 {stroke:#000000;stroke-linecap:round;stroke-linejoin:round;stroke-width:3}
		.st4 {fill:#ffffff;stroke:#ffffff;stroke-linecap:round;stroke-linejoin:round;stroke-width:0.75}
		.st5 {fill:none;stroke:none;stroke-linecap:round;stroke-linejoin:round;stroke-width:0.75}
		.st6 {fill:#000000;font-family:Calibri;font-size:2.50001em}
		.st7 {fill:none;fill-rule:evenodd;font-size:12px;overflow:visible;stroke-linecap:square;stroke-miterlimit:3}
	]]>
	</style>

	<g v:mID="29" v:index="8" v:groupContext="foregroundPage">
		<v:userDefs>
			<v:ud v:nameU="LineBusCount" v:prompt="" v:val="VT0(13):26"/>
			<v:ud v:nameU="AccumulatorCount" v:prompt="" v:val="VT0(3):26"/>
		</v:userDefs>
		<title>FC icon-3L</title>
		<v:pageProperties v:drawingScale="0.0393701" v:pageScale="0.0393701" v:drawingUnits="24" v:shadowOffsetX="8.50394"
				v:shadowOffsetY="-8.50394"/>
		<v:layer v:name="Electrical" v:index="0"/>
		<g id="shape1007-1" v:mID="1007" v:groupContext="shape" transform="translate(0.850394,-42.5197)">
			<title>Sheet.1007</title>
			<path d="M0 149.98 L48.19 149.98" class="st1"/>
		</g>
		<g id="shape1009-4" v:mID="1009" v:groupContext="shape" transform="translate(0.850394,-107.717)">
			<title>Sheet.1009</title>
			<path d="M0 149.98 L282.05 149.98" class="st1"/>
		</g>
		<g id="shape1028-7" v:mID="1028" v:groupContext="shape" transform="translate(432.879,42.2646) rotate(90)">
			<title>Sheet.1028</title>
			<path d="M0 149.98 L65.25 149.98" class="st1"/>
		</g>
		<g id="group1029-10" transform="translate(30.3016,-6.72261)" v:mID="1029" v:groupContext="group">
			<title>Sheet.1029</title>
			<g id="group1011-11" transform="translate(22.7162,0)" v:mID="1011" v:groupContext="group" v:layerMember="0">
				<v:custProps>
					<v:cp v:nameU="SubType" v:lbl="Converter type" v:type="1"
							v:format="General;DC Converter;Rectifier;Inverter;Rectifier/Inverter;Frequency Changer" v:sortKey=""
							v:invis="false" v:ask="false" v:langID="1033" v:val="VT4(General)"/>
					<v:cp v:nameU="SubType" v:lbl="" v:prompt="" v:type="0" v:format="" v:sortKey="" v:invis="false" v:ask="false"
							v:langID="1044" v:cal="0" v:val="VT4(Rectifier)"/>
				</v:custProps>
				<v:userDefs>
					<v:ud v:nameU="SubType" v:val="VT0(0):26"/>
					<v:ud v:nameU="visVersion" v:val="VT0(15):26"/>
					<v:ud v:nameU="visDescription"
							v:val="VT4(Converter, general. Right-click for DC converter, rectifier, inverter, or rectifier/inverter.)"/>
					<v:ud v:nameU="SubType" v:prompt="" v:val="VT0(2):26"/>
				</v:userDefs>
				<title>Converter.1038</title>
				<g id="shape1012-12" v:mID="1012" v:groupContext="shape" v:layerMember="0">
					<title>Sheet.1012</title>
					<path d="M0 149.98 L71.49 149.98 L71.49 78.49 L0 78.49 L0 149.98 Z" class="st2"/>
					<path d="M0 149.98 L71.49 78.49" class="st1"/>
					<path d="M0 149.98 L71.49 149.98 L71.49 78.49 L0 78.49 L0 149.98" class="st1"/>
				</g>
				<g id="shape1013-16" v:mID="1013" v:groupContext="shape" v:layerMember="0" transform="translate(7.14912,-17.8728)">
					<title>Sheet.1013</title>
					<path d="M21.45 149.98 L57.19 149.98" class="st1"/>
					<path d="M0 114.24 A12.3008 12.3008 0 0 1 18.03 114.24 A11.9398 11.9398 -180 0 0 35.75 114.24" class="st1"/>
				</g>
				<g id="shape1014-20" v:mID="1014" v:groupContext="shape" v:layerMember="0" transform="translate(-17.8728,-35.7456)">
					<title>Sheet.1014</title>
					<path d="M17.87 149.98 L0 149.98" class="st1"/>
					<path d="M89.36 149.98 L107.24 149.98" class="st1"/>
				</g>
				<g id="shape1015-24" v:mID="1015" v:groupContext="shape" v:layerMember="0" transform="translate(7.14912,5.36184)">
					<title>Sheet.1015</title>
				</g>
			</g>
			<g id="shape1024-26" v:mID="1024" v:groupContext="shape" transform="translate(51.3386,-10.5202)">
				<title>Sheet.1024</title>
				<path d="M0 149.98 L12.87 149.98" class="st1"/>
			</g>
			<g id="shape1025-29" v:mID="1025" v:groupContext="shape" transform="translate(73.6414,-10.5202)">
				<title>Sheet.1025</title>
				<path d="M0 149.98 L12.87 149.98" class="st1"/>
			</g>
		</g>
		<g id="group1030-32" transform="translate(179.536,-6.72261)" v:mID="1030" v:groupContext="group">
			<title>Sheet.1030</title>
			<g id="group1016-33" v:mID="1016" v:groupContext="group" v:layerMember="0">
				<v:custProps>
					<v:cp v:nameU="SubType" v:lbl="Converter type" v:type="1"
							v:format="General;DC Converter;Rectifier;Inverter;Rectifier/Inverter;Frequency Changer" v:sortKey=""
							v:invis="false" v:ask="false" v:langID="1033" v:val="VT4(General)"/>
					<v:cp v:nameU="SubType" v:lbl="" v:prompt="" v:type="0" v:format="" v:sortKey="" v:invis="false" v:ask="false"
							v:langID="1044" v:cal="0" v:val="VT4(Inverter)"/>
				</v:custProps>
				<v:userDefs>
					<v:ud v:nameU="SubType" v:val="VT0(0):26"/>
					<v:ud v:nameU="visVersion" v:val="VT0(15):26"/>
					<v:ud v:nameU="visDescription"
							v:val="VT4(Converter, general. Right-click for DC converter, rectifier, inverter, or rectifier/inverter.)"/>
					<v:ud v:nameU="SubType" v:prompt="" v:val="VT0(3):26"/>
				</v:userDefs>
				<title>Converter.1050</title>
				<g id="shape1017-34" v:mID="1017" v:groupContext="shape" v:layerMember="0">
					<title>Sheet.1017</title>
					<path d="M0 149.98 L71.49 149.98 L71.49 78.49 L0 78.49 L0 149.98 Z" class="st2"/>
					<path d="M0 149.98 L71.49 78.49" class="st1"/>
					<path d="M0 149.98 L71.49 149.98 L71.49 78.49 L0 78.49 L0 149.98" class="st1"/>
				</g>
				<g id="shape1018-38" v:mID="1018" v:groupContext="shape" v:layerMember="0"
						transform="translate(64.3421,242.762) rotate(180)">
					<title>Sheet.1018</title>
					<path d="M21.45 149.98 L57.19 149.98" class="st1"/>
					<path d="M0 114.24 A12.3008 12.3008 0 0 1 18.03 114.24 A11.9398 11.9398 -180 0 0 35.75 114.24" class="st1"/>
				</g>
				<g id="shape1019-42" v:mID="1019" v:groupContext="shape" v:layerMember="0" transform="translate(-17.8728,-35.7456)">
					<title>Sheet.1019</title>
					<path d="M17.87 149.98 L0 149.98" class="st1"/>
					<path d="M89.36 149.98 L107.24 149.98" class="st1"/>
				</g>
				<g id="shape1020-46" v:mID="1020" v:groupContext="shape" v:layerMember="0" transform="translate(7.14912,5.36184)">
					<title>Sheet.1020</title>
				</g>
			</g>
			<g id="shape1026-48" v:mID="1026" v:groupContext="shape" transform="translate(7.78423,-50.0436)">
				<title>Sheet.1026</title>
				<path d="M0 149.98 L12.87 149.98" class="st1"/>
			</g>
			<g id="shape1027-51" v:mID="1027" v:groupContext="shape" transform="translate(29.2316,-50.0436)">
				<title>Sheet.1027</title>
				<path d="M0 149.98 L12.87 149.98" class="st1"/>
			</g>
		</g>
		<g id="shape1031-54" v:mID="1031" v:groupContext="shape" transform="translate(282.898,-75.1181)">
			<title>Sheet.1031</title>
			<path d="M0 149.98 L15.59 149.98" class="st1"/>
		</g>
		<g id="shape1033-57" v:mID="1033" v:groupContext="shape" transform="translate(251.717,-42.4682)">
			<title>Sheet.1033</title>
			<path d="M0 149.98 L31.18 149.98" class="st1"/>
		</g>
		<g id="shape1035-60" v:mID="1035" v:groupContext="shape" transform="translate(125.575,-12.0472)">
			<title>Sheet.1035</title>
			<path d="M0 149.98 L53.86 149.98" class="st3"/>
		</g>
		<g id="shape1038-63" v:mID="1038" v:groupContext="shape" transform="translate(301.635,108.443) rotate(90)">
			<title>Sheet.1038</title>
			<path d="M0 149.98 L10.36 149.98" class="st3"/>
		</g>
		<g id="shape1040-66" v:mID="1040" v:groupContext="shape" transform="translate(126.198,-39.685)">
			<title>Sheet.1040</title>
			<rect x="0" y="145.729" width="17.5748" height="4.25197" class="st4"/>
		</g>
		<g id="shape1041-68" v:mID="1041" v:groupContext="shape" transform="translate(160.157,-40.5354)">
			<title>Sheet.1041</title>
			<rect x="0" y="145.729" width="17.5748" height="4.25197" class="st4"/>
		</g>
		<g id="shape1036-70" v:mID="1036" v:groupContext="shape" transform="translate(144,-29.7638)">
			<title>Sheet.1036</title>
			<path d="M0 149.98 L15.59 149.98" class="st3"/>
		</g>
		<g id="shape1037-73" v:mID="1037" v:groupContext="shape" transform="translate(144,-23.6469)">
			<title>Sheet.1037</title>
			<path d="M0 149.98 L15.82 149.98" class="st3"/>
		</g>
		<g id="shape1039-76" v:mID="1039" v:groupContext="shape" transform="translate(301.56,127.304) rotate(90)">
			<title>Sheet.1039</title>
			<path d="M0 149.98 L9.7 149.98" class="st3"/>
		</g>
		<g id="shape1042-79" v:mID="1042" v:groupContext="shape" transform="translate(125.575,-72.2835)">
			<title>Sheet.1042</title>
			<path d="M0 149.98 L53.86 149.98" class="st3"/>
		</g>
		<g id="shape1034-82" v:mID="1034" v:groupContext="shape" transform="translate(125.575,-42.5197)">
			<title>Sheet.1034</title>
			<path d="M0 149.98 L53.86 149.98" class="st3"/>
		</g>
		<g id="shape1043-85" v:mID="1043" v:groupContext="shape" transform="translate(301.635,96.1228) rotate(90)">
			<title>Sheet.1043</title>
			<path d="M0 149.98 L10.36 149.98" class="st3"/>
		</g>
		<g id="shape1044-88" v:mID="1044" v:groupContext="shape" transform="translate(144,-53.8583)">
			<title>Sheet.1044</title>
			<path d="M0 149.98 L15.59 149.98" class="st3"/>
		</g>
		<g id="shape1045-91" v:mID="1045" v:groupContext="shape" transform="translate(144,-59.5276)">
			<title>Sheet.1045</title>
			<path d="M0 149.98 L15.59 149.98" class="st3"/>
		</g>
		<g id="shape1046-94" v:mID="1046" v:groupContext="shape" transform="translate(301.858,79.115) rotate(90)">
			<title>Sheet.1046</title>
			<path d="M0 149.98 L9.7 149.98" class="st3"/>
		</g>
		<g id="shape1047-97" v:mID="1047" v:groupContext="shape" transform="translate(-39.1811,-79.2126)">
			<title>Sheet.1047</title>
			<desc>3L</desc>
			<v:textBlock v:margins="rect(4,4,4,4)" v:tabSpace="42.5197"/>
			<v:textRect cx="76" cy="139.981" width="152.01" height="20"/>
			<rect x="0" y="129.981" width="152" height="20" class="st5"/>
			<text x="62.09" y="148.98" class="st6" v:langID="1044"><v:paragraph v:horizAlign="1"/><v:tabList/>3L</text>		</g>
		<g id="shape1048-100" v:mID="1048" v:groupContext="shape" transform="translate(187.591,-79.2126)">
			<title>Sheet.1048</title>
			<desc>3L</desc>
			<v:textBlock v:margins="rect(4,4,4,4)" v:tabSpace="42.5197"/>
			<v:textRect cx="76" cy="139.981" width="152.01" height="20"/>
			<rect x="0" y="129.981" width="152" height="20" class="st5"/>
			<text x="62.09" y="148.98" class="st6" v:langID="1044"><v:paragraph v:horizAlign="1"/><v:tabList/>3L</text>		</g>
	</g>
</svg>
