<?xml version="1.0" encoding="UTF-8" standalone="no"?>
<!-- Created with Inkscape (http://www.inkscape.org/) -->

<svg
   xmlns:osb="http://www.openswatchbook.org/uri/2009/osb"
   xmlns:dc="http://purl.org/dc/elements/1.1/"
   xmlns:cc="http://creativecommons.org/ns#"
   xmlns:rdf="http://www.w3.org/1999/02/22-rdf-syntax-ns#"
   xmlns:svg="http://www.w3.org/2000/svg"
   xmlns="http://www.w3.org/2000/svg"
   xmlns:xlink="http://www.w3.org/1999/xlink"
   xmlns:sodipodi="http://sodipodi.sourceforge.net/DTD/sodipodi-0.dtd"
   xmlns:inkscape="http://www.inkscape.org/namespaces/inkscape"
   width="200"
   height="200"
   id="svg2"
   version="1.1"
   inkscape:version="0.48.5 r10040"
   sodipodi:docname="winch_simple1.svg">
  <defs
     id="defs4">
    <linearGradient
       id="linearGradient3764"
       osb:paint="solid">
      <stop
         style="stop-color:#ffffff;stop-opacity:1;"
         offset="0"
         id="stop3766" />
    </linearGradient>
    <linearGradient
       inkscape:collect="always"
       xlink:href="#linearGradient3764"
       id="linearGradient3768"
       x1="25"
       y1="115"
       x2="65"
       y2="115"
       gradientUnits="userSpaceOnUse" />
  </defs>
  <sodipodi:namedview
     id="base"
     pagecolor="#ffffff"
     bordercolor="#666666"
     borderopacity="1.0"
     inkscape:pageopacity="0.0"
     inkscape:pageshadow="2"
     inkscape:zoom="3.255"
     inkscape:cx="52.073733"
     inkscape:cy="100.50487"
     inkscape:document-units="px"
     inkscape:current-layer="layer1"
     showgrid="true"
     inkscape:window-width="1600"
     inkscape:window-height="838"
     inkscape:window-x="-8"
     inkscape:window-y="-8"
     inkscape:window-maximized="1">
    <inkscape:grid
       type="xygrid"
       id="grid2989"
       empspacing="5"
       visible="true"
       enabled="true"
       snapvisiblegridlinesonly="true" />
  </sodipodi:namedview>
  <metadata
     id="metadata7">
    <rdf:RDF>
      <cc:Work
         rdf:about="">
        <dc:format>image/svg+xml</dc:format>
        <dc:type
           rdf:resource="http://purl.org/dc/dcmitype/StillImage" />
        <dc:title></dc:title>
      </cc:Work>
    </rdf:RDF>
  </metadata>
  <g
     inkscape:label="Layer 1"
     inkscape:groupmode="layer"
     id="layer1"
     transform="translate(0,-852.36217)">
    <path
       sodipodi:type="arc"
       style="fill:#000000;fill-opacity:1"
       id="path2991"
       sodipodi:cx="140"
       sodipodi:cy="95"
       sodipodi:rx="35"
       sodipodi:ry="35"
       d="m 175,95 c 0,19.32997 -15.67003,35 -35,35 -19.32997,0 -35,-15.67003 -35,-35 0,-19.329966 15.67003,-35 35,-35 19.32997,0 35,15.670034 35,35 z"
       transform="matrix(1.4285714,0,0,1.4285713,-100,816.6479)" />
    <path
       sodipodi:type="arc"
       style="fill:#0000ff"
       id="path2992"
       sodipodi:cx="137.5"
       sodipodi:cy="92.5"
       sodipodi:rx="12.5"
       sodipodi:ry="12.5"
       d="m 150,92.5 c 0,6.903559 -5.59644,12.5 -12.5,12.5 -6.90356,0 -12.5,-5.596441 -12.5,-12.5 0,-6.903559 5.59644,-12.5 12.5,-12.5 6.90356,0 12.5,5.596441 12.5,12.5 z"
       transform="translate(-38,856.36217)" />
    <path
       sodipodi:type="arc"
       style="fill:url(#linearGradient3768);fill-opacity:1"
       id="path2994"
       sodipodi:cx="45"
       sodipodi:cy="115"
       sodipodi:rx="20"
       sodipodi:ry="20"
       d="m 65,115 c 0,11.04569 -8.954305,20 -20,20 -11.045695,0 -20,-8.95431 -20,-20 0,-11.04569 8.954305,-20 20,-20 11.045695,0 20,8.95431 20,20 z"
       transform="matrix(2.25,0,0,2.25,-1.25,693.61217)" />
    <rect
       style="fill:#000000;fill-opacity:1;stroke:#000000;stroke-width:0.64226025;stroke-opacity:1"
       id="rect3913-5"
       width="55"
       height="2.9999874"
       x="145"
       y="936.36218" />
    <rect
       style="fill:#000000;fill-opacity:1;stroke:#000000;stroke-width:0.64226025;stroke-opacity:1"
       id="rect3913-5-1"
       width="55"
       height="2.9999874"
       x="145"
       y="962.36218" />
    <path
       style="fill:none;stroke:#000000;stroke-width:1.99759769px;stroke-linecap:butt;stroke-linejoin:miter;stroke-opacity:1"
       d="m 52,1007.3622 c 0,-55.00003 0,-55.00003 0,-55.00003"
       id="path3037"
       inkscape:connector-curvature="0" />
    <path
       style="fill:none;stroke:#000000;stroke-width:4;stroke-linecap:round;stroke-linejoin:miter;stroke-opacity:1;stroke-miterlimit:4;stroke-dasharray:none"
       d="m 52,1007.3622 c -25,30 -25,30 -25,30"
       id="path3041"
       inkscape:connector-curvature="0" />
    <path
       style="fill:none;stroke:#000000;stroke-width:4;stroke-linecap:round;stroke-linejoin:miter;stroke-opacity:1;stroke-miterlimit:4;stroke-dasharray:none"
       d="m 52,1007.3622 c 25,30 25,30 25,30"
       id="path3043"
       inkscape:connector-curvature="0" />
    <path
       style="fill:none;stroke:#000000;stroke-width:4;stroke-linecap:round;stroke-linejoin:miter;stroke-opacity:1;stroke-miterlimit:4;stroke-dasharray:none"
       d="m 27,1037.3622 c 50,0 50,0 50,0"
       id="path3045"
       inkscape:connector-curvature="0" />
  </g>
</svg>
